<svg width="524" height="524" viewBox="0 0 524 524" fill="none" xmlns="http://www.w3.org/2000/svg">
    <g>
        <path
            d="M1.66663 358.716C1.66663 358.716 43.1666 369.716 67.6666 391.216C92.1666 412.716 103.667 425.716 133.667 435.216C163.667 444.716 178.667 463.716 199.667 435.216C220.667 406.716 244.667 292.216 265.667 274.716C286.667 257.216 302.667 233.216 327.667 251.216C352.667 269.216 372.167 326.216 393.667 335.216C415.167 344.216 434.192 331.293 459.667 335.216C488.167 339.605 529.667 358.716 529.667 358.716"
            stroke="url(#paint0_linear_27_2)" stroke-width="35" stroke-linecap="round" />
        <path
            d="M0.333252 324.55C0.333252 324.55 41.8333 335.55 66.3333 357.05C90.8333 378.55 102.333 391.55 132.333 401.05C162.333 410.55 177.333 429.55 198.333 401.05C219.333 372.55 243.333 258.05 264.333 240.55C285.333 223.05 301.333 199.05 326.333 217.05C351.333 235.05 370.833 292.05 392.333 301.05C413.833 310.049 432.859 297.127 458.333 301.05C486.833 305.438 528.333 324.55 528.333 324.55"
            stroke="url(#paint1_linear_27_2)" stroke-width="35" stroke-linecap="round" />
        <path
            d="M-1 290.383C-1 290.383 40.5 301.383 65 322.883C89.5 344.383 101 357.383 131 366.883C161 376.383 176 395.383 197 366.883C218 338.383 242 223.883 263 206.383C284 188.883 300 164.883 325 182.883C350 200.883 369.5 257.883 391 266.883C412.5 275.883 431.526 262.96 457 266.883C485.5 271.272 527 290.383 527 290.383"
            stroke="url(#paint2_linear_27_2)" stroke-width="35" stroke-linecap="round" />
        <path
            d="M-2.33337 256.216C-2.33337 256.216 39.1666 267.216 63.6666 288.716C88.1666 310.216 99.6666 323.216 129.667 332.716C159.667 342.216 174.667 361.216 195.667 332.716C216.667 304.216 240.667 189.716 261.667 172.216C282.667 154.716 298.667 130.716 323.667 148.716C348.667 166.716 368.167 223.716 389.667 232.716C411.167 241.716 430.192 228.793 455.667 232.716C484.167 237.105 525.667 256.216 525.667 256.216"
            stroke="url(#paint3_linear_27_2)" stroke-width="35" stroke-linecap="round" />
        <path
            d="M-3.66675 222.05C-3.66675 222.05 37.8333 233.05 62.3333 254.55C86.8333 276.05 98.3333 289.05 128.333 298.55C158.333 308.05 173.333 327.05 194.333 298.55C215.333 270.05 239.333 155.55 260.333 138.05C281.333 120.55 297.333 96.5496 322.333 114.55C347.333 132.55 366.833 189.55 388.333 198.55C409.833 207.55 428.859 194.627 454.333 198.55C482.833 202.938 524.333 222.05 524.333 222.05"
            stroke="url(#paint4_linear_27_2)" stroke-width="35" stroke-linecap="round" />
    </g>
    <defs>
        <linearGradient id="paint0_linear_27_2" x1="265.667" y1="244.833" x2="265.667" y2="450.268"
            gradientUnits="userSpaceOnUse">
            <stop stop-color="#234C90" />
            <stop offset="1" stop-color="#3B82F6" />
        </linearGradient>
        <linearGradient id="paint1_linear_27_2" x1="264.333" y1="210.667" x2="264.333" y2="416.102"
            gradientUnits="userSpaceOnUse">
            <stop stop-color="#153885" />
            <stop offset="1" stop-color="#2563EB" />
        </linearGradient>
        <linearGradient id="paint2_linear_27_2" x1="263" y1="176.5" x2="263" y2="381.935"
            gradientUnits="userSpaceOnUse">
            <stop stop-color="#0F2972" />
            <stop offset="1" stop-color="#1D4ED8" />
        </linearGradient>
        <linearGradient id="paint3_linear_27_2" x1="261.667" y1="142.333" x2="261.667" y2="347.768"
            gradientUnits="userSpaceOnUse">
            <stop stop-color="#0D1B49" />
            <stop offset="1" stop-color="#1E40AF" />
        </linearGradient>
        <linearGradient id="paint4_linear_27_2" x1="260.333" y1="108.167" x2="260.333" y2="313.602"
            gradientUnits="userSpaceOnUse">
            <stop stop-color="#080F24" />
            <stop offset="1" stop-color="#1E3A8A" />
        </linearGradient>
    </defs>
</svg>